<?xml version="1.0" standalone="no"?>
<!DOCTYPE svg PUBLIC "-//W3C//DTD SVG 20010904//EN"
 "http://www.w3.org/TR/2001/REC-SVG-20010904/DTD/svg10.dtd">
<svg version="1.0" xmlns="http://www.w3.org/2000/svg"
 width="711.000000pt" height="711.000000pt" viewBox="0 0 711.000000 711.000000"
 preserveAspectRatio="xMidYMid meet">
<metadata>
Created by potrace 1.11, written by Peter Selinger 2001-2013
</metadata>
<g transform="translate(0.000000,711.000000) scale(0.100000,-0.100000)"
fill="#000000" stroke="none">
<path d="M5565 7100 c-16 -4 -181 -46 -365 -94 -569 -146 -785 -202 -1070
-275 -151 -39 -294 -76 -317 -82 -41 -11 -45 -16 -103 -122 -33 -61 -60 -114
-60 -119 0 -4 -53 -8 -117 -8 -1045 0 -2034 -611 -2511 -1550 -149 -294 -234
-560 -289 -905 -25 -159 -25 -601 0 -775 81 -561 327 -1093 700 -1511 102
-114 215 -222 340 -322 84 -68 249 -185 301 -214 18 -10 11 -26 -99 -229 -223
-416 -339 -629 -406 -754 -37 -69 -65 -127 -63 -129 3 -3 73 63 157 145 127
126 508 493 741 715 l59 57 41 -18 c156 -66 417 -136 644 -172 200 -32 615
-32 817 0 559 87 1036 307 1460 673 506 437 838 1044 946 1729 20 125 23 183
23 415 0 233 -3 290 -23 415 -109 696 -442 1295 -971 1752 -79 67 -272 208
-363 263 l-66 40 319 538 c176 296 320 540 320 543 0 5 -6 4 -45 -6z m-275
-234 c0 -3 -24 -44 -54 -93 -29 -48 -127 -212 -216 -363 -229 -386 -843 -1419
-901 -1515 -26 -44 -46 -81 -44 -83 1 -2 88 17 191 43 417 100 559 133 562
130 3 -3 -153 -276 -410 -720 -192 -331 -224 -386 -315 -545 -166 -287 -355
-614 -425 -733 -38 -65 -68 -121 -65 -123 4 -4 76 12 397 87 102 23 141 32
240 55 41 9 97 23 124 30 27 8 53 14 58 14 7 0 -159 -164 -442 -435 -69 -66
-192 -185 -275 -265 -83 -80 -209 -201 -280 -270 -72 -69 -200 -192 -286 -275
-85 -82 -214 -206 -285 -275 -72 -69 -247 -238 -390 -375 -142 -138 -286 -275
-318 -305 l-60 -55 31 55 c17 30 94 174 173 320 78 146 157 292 175 325 17 33
132 247 255 475 123 228 247 459 277 512 49 90 60 117 41 111 -22 -8 -761
-154 -763 -151 -1 2 36 73 82 158 46 85 107 198 135 250 84 158 186 345 286
530 52 96 118 218 145 270 28 52 113 209 189 349 76 140 136 256 133 259 -2 2
-149 -25 -327 -60 -178 -36 -324 -64 -326 -63 -2 2 264 502 513 960 18 33 144
267 280 520 136 253 262 487 280 520 150 278 199 366 204 370 4 2 106 29 226
60 741 190 986 253 1085 280 96 26 100 27 100 21z"/>
</g>
</svg>
