<?xml version="1.0" standalone="no"?>
<!DOCTYPE svg PUBLIC "-//W3C//DTD SVG 20010904//EN"
 "http://www.w3.org/TR/2001/REC-SVG-20010904/DTD/svg10.dtd">
<svg version="1.0" xmlns="http://www.w3.org/2000/svg"
 width="1205.000000pt" height="1205.000000pt" viewBox="0 0 1205.000000 1205.000000"
 preserveAspectRatio="xMidYMid meet">
<metadata>
Created by potrace 1.11, written by Peter Selinger 2001-2013
</metadata>
<g transform="translate(0.000000,1205.000000) scale(0.100000,-0.100000)"
fill="#000000" stroke="none">
<path d="M8545 9644 c-16 -2 -79 -9 -140 -15 -539 -53 -1093 -279 -1543 -628
-157 -122 -334 -293 -1307 -1262 -1066 -1060 -976 -984 -1145 -983 -169 1 -95
-63 -1080 919 -816 813 -869 863 -930 890 -54 24 -79 29 -145 29 -99 1 -165
-20 -242 -79 -32 -23 -430 -416 -884 -871 -895 -898 -866 -865 -890 -1000 -7
-43 -7 -78 0 -117 24 -132 -90 -11 2001 -2102 1232 -1233 1957 -1950 1986
-1966 99 -57 233 -63 345 -13 60 26 119 82 1036 998 l973 971 972 -971 c911
-909 977 -972 1036 -998 120 -53 256 -44 362 24 56 36 2072 2055 2162 2165
384 470 614 1013 682 1615 20 173 21 495 1 665 -84 731 -397 1367 -921 1876
-471 456 -1074 746 -1739 835 -105 14 -527 27 -590 18z"/>
</g>
</svg>
